# File created by Blade
# Date/Time:  Wed Jan 21 17:21:41 2015
#---------------------------------------------------------
:version 1.10
:name HOM
:units
  mass 1.0
  length 1.000000
  angle deg
:documentation
     Acclaim Skeleton File
:root
   axis xyz
   order TX TY TZ RX RY RZ
   position 0.000000 0.000000 0.000000
   orientation 0 0 0
:bonedata
   begin
      id 1
      name Spine_dum
      direction 0.000000 1.000000 0.000000
      length 7.067664
      axis 0.0 0.0 0.0 xyz
   end
   begin
      id 2
      name LeftUpLeg_dum
      direction 1.000000 0.000000 0.000000
      length 4.013002
      axis 0.0 0.0 0.0 xyz
   end
   begin
      id 3
      name RightUpLeg_dum
      direction -1.000000 0.000000 0.000000
      length 4.013002
      axis 0.0 0.0 0.0 xyz
   end
   begin
      id 4
      name Spine
      direction 0.000000 1.000000 0.000000
      length 0.000000
      axis 0.0 0.0 0.0 xyz
      dof rx ry rz
   end
   begin
      id 5
      name Spine_dum1
      direction 0.000000 1.000000 0.000000
      length 15.039886
      axis 0.0 0.0 0.0 xyz
   end
   begin
      id 6
      name Spine_dum2
      direction 0.000000 1.000000 0.000000
      length 10.530368
      axis 0.0 0.0 0.0 xyz
   end
   begin
      id 7
      name Spine_dum3
      direction 0.000000 1.000000 0.000000
      length 10.530368
      axis 0.0 0.0 0.0 xyz
   end
   begin
      id 8
      name Head
      direction 0.000000 1.000000 0.000000
      length 4.527550
      axis 0.0 0.0 0.0 xyz
      dof rx ry rz
   end
   begin
      id 9
      name LeftShoulder
      direction 1.000000 0.000000 0.000000
      length 7.028855
      axis 0.0 0.0 -90.0 xyz
      dof rx ry rz
   end
   begin
      id 10
      name LeftArm
      direction 1.000000 0.000000 0.000000
      length 10.797705
      axis 0.0 0.0 -90.0 xyz
      dof rx ry rz
   end
   begin
      id 11
      name LeftForeArm
      direction 1.000000 0.000000 0.000000
      length 7.907442
      axis 0.0 0.0 -90.0 xyz
      dof ry rz rx
   end
   begin
      id 12
      name LeftHand
      direction 0.000000 0.000000 0.000000
      length 0.000000
      axis 0.0 0.0 -90.0 xyz
      dof rx ry rz
   end
   begin
      id 13
      name LeftHand_dum1
      direction 0.000000 0.000000 0.000000
      length 0.000000
      axis 0.0 0.0 -90.0 xyz
   end
   begin
      id 14
      name LeftHand_dum2
      direction 1.000000 0.000000 0.000000
      length 3.937000
      axis 0.0 0.0 -90.0 xyz
   end
   begin
      id 15
      name LeftHandThumb1
      direction 0.000000 0.000000 1.000000
      length 3.937000
      axis 0.0 0.0 -90.0 xyz
      dof rx rz ry
   end
   begin
      id 16
      name RightShoulder
      direction -1.000000 0.000000 0.000000
      length 7.028855
      axis 0.0 0.0 90.0 xyz
      dof rx ry rz
   end
   begin
      id 17
      name RightArm
      direction -1.000000 0.000000 0.000000
      length 10.797705
      axis 0.0 0.0 90.0 xyz
      dof rx ry rz
   end
   begin
      id 18
      name RightForeArm
      direction -1.000000 0.000000 0.000000
      length 7.907442
      axis 0.0 0.0 90.0 xyz
      dof ry rz rx
   end
   begin
      id 19
      name RightHand
      direction 0.000000 0.000000 0.000000
      length 0.000000
      axis 0.0 0.0 90.0 xyz
      dof rx ry rz
   end
   begin
      id 20
      name RightHand_dum1
      direction 0.000000 0.000000 0.000000
      length 0.000000
      axis 0.0 0.0 90.0 xyz
   end
   begin
      id 21
      name RightHand_dum2
      direction -1.000000 0.000000 0.000000
      length 3.937000
      axis 0.0 0.0 90.0 xyz
   end
   begin
      id 22
      name RightHandThumb1
      direction 0.000000 0.000000 1.000000
      length 3.937000
      axis 0.0 0.0 90.0 xyz
      dof rx rz ry
   end
   begin
      id 23
      name LeftUpLeg
      direction 0.000000 -1.000000 0.000000
      length 16.899758
      axis 0.0 0.0 0.0 xyz
      dof rx ry rz
   end
   begin
      id 24
      name LeftLeg
      direction 0.000000 -1.000000 0.000000
      length 17.389183
      axis 0.0 0.0 0.0 xyz
      dof rx ry rz
   end
   begin
      id 25
      name LeftFoot
      direction 0.000000 -0.258819 0.965926
      length 4.924528
      axis 15.0 0.0 0.0 xyz
      dof rx ry rz
   end
   begin
      id 26
      name LeftToeBase
      direction 0.000000 0.000000 1.000000
      length 2.952750
      axis 0.0 0.0 0.0 xyz
      dof rx ry rz
   end
   begin
      id 27
      name RightUpLeg
      direction 0.000000 -1.000000 0.000000
      length 16.899758
      axis 0.0 0.0 0.0 xyz
      dof rx ry rz
   end
   begin
      id 28
      name RightLeg
      direction 0.000000 -1.000000 0.000000
      length 17.389183
      axis 0.0 0.0 0.0 xyz
      dof rx ry rz
   end
   begin
      id 29
      name RightFoot
      direction 0.000000 -0.258819 0.965926
      length 4.924528
      axis 15.0 0.0 0.0 xyz
      dof rx ry rz
   end
   begin
      id 30
      name RightToeBase
      direction 0.000000 0.000000 1.000000
      length 2.952750
      axis 0.0 0.0 0.0 xyz
      dof rx ry rz
   end
:hierarchy
   begin
      root Spine_dum LeftUpLeg_dum RightUpLeg_dum
      Spine_dum Spine
      LeftUpLeg_dum LeftUpLeg
      RightUpLeg_dum RightUpLeg
      Spine Spine_dum1 Spine_dum2 Spine_dum3
      Spine_dum1 Head
      Spine_dum2 LeftShoulder
      Spine_dum3 RightShoulder
      LeftShoulder LeftArm
      LeftArm LeftForeArm
      LeftForeArm LeftHand
      LeftHand LeftHand_dum1 LeftHand_dum2
      LeftHand_dum1 LeftHandThumb1
      RightShoulder RightArm
      RightArm RightForeArm
      RightForeArm RightHand
      RightHand RightHand_dum1 RightHand_dum2
      RightHand_dum1 RightHandThumb1
      LeftUpLeg LeftLeg
      LeftLeg LeftFoot
      LeftFoot LeftToeBase
      RightUpLeg RightLeg
      RightLeg RightFoot
      RightFoot RightToeBase
   end

# File created by Blade
# Date/Time:  Wed Jan 21 17:21:31 2015
# Frame Rate: 120.000 fps
#------------------------------------------------------
:FULLY-SPECIFIED
:DEGREES
1
root 19.705859 35.269065 -23.327935 -174.795185 -1.415466 -179.545504
Spine -14.750815 0.070418 -0.311823
Head 6.358419 -2.491099 0.959959
LeftShoulder -14.064586 -33.056757 22.525966
LeftArm 1.352382 1.199328 -6.294631
LeftForeArm 12.508308 -0.000000 -3.553276
LeftHand -11.420230 0.000000 -2.638863
LeftHandThumb1 -26.253704 0.000000 33.147579
RightShoulder -12.535198 -2.712260 -12.304208
RightArm 3.719272 36.385052 8.980722
RightForeArm -38.655362 -0.000000 3.777602
RightHand -8.375869 0.000000 9.078071
RightHandThumb1 -24.326973 -0.000000 -32.862282
LeftUpLeg 5.138355 10.846341 4.464519
LeftLeg -6.527678 -0.000000 0.000000
LeftFoot -19.227767 24.390312 -13.442808
LeftToeBase 25.029379 -0.000000 -0.000000
RightUpLeg 4.082327 -13.736984 -4.639234
RightLeg -4.383149 -0.000000 0.000000
RightFoot -19.684883 -19.655714 17.991537
RightToeBase 25.680805 -0.000000 -0.000000
2
root 19.707333 35.268819 -23.329787 -174.790265 -1.417144 -179.540490
Spine -14.747881 0.130804 -0.327364
Head 6.346950 -2.552057 0.951218
LeftShoulder -14.003058 -33.086533 22.507203
LeftArm 1.324938 1.158146 -6.269797
LeftForeArm 12.525227 -0.000000 -3.561715
LeftHand -11.446886 0.000000 -2.648127
LeftHandThumb1 -26.253704 0.000000 33.147579
RightShoulder -12.594192 -2.709053 -12.309907
RightArm 3.680972 36.389634 8.965272
RightForeArm -38.658613 -0.000000 3.780564
RightHand -8.388690 0.000000 9.090013
RightHandThumb1 -24.326973 -0.000000 -32.862282
LeftUpLeg 5.136840 10.841836 4.471490
LeftLeg -6.534381 -0.000000 0.000000
LeftFoot -19.218113 24.402050 -13.438197
LeftToeBase 25.096370 -0.000000 -0.000000
RightUpLeg 4.081792 -13.740830 -4.631448
RightLeg -4.387618 -0.000000 0.000000
RightFoot -19.679971 -19.644350 17.987210
RightToeBase 25.708803 -0.000000 -0.000000
3
root 19.708792 35.268428 -23.331186 -174.780014 -1.418914 -179.540246
Spine -14.752865 0.122137 -0.332762
Head 6.343931 -2.545183 0.951199
LeftShoulder -14.014300 -33.081452 22.531223
LeftArm 1.296450 1.113422 -6.246520
LeftForeArm 12.524172 -0.000000 -3.571881
LeftHand -11.428721 -0.000000 -2.670026
LeftHandThumb1 -26.253704 0.000000 33.147579
RightShoulder -12.598245 -2.718588 -12.311158
RightArm 3.679180 36.396599 8.969578
RightForeArm -38.642436 -0.000000 3.774933
RightHand -8.400312 0.000000 9.085937
RightHandThumb1 -24.326973 -0.000000 -32.862282
LeftUpLeg 5.128815 10.851149 4.471866
LeftLeg -6.533090 -0.000000 0.000000
LeftFoot -19.234220 24.389196 -13.459376
LeftToeBase 25.023134 -0.000000 -0.000000
RightUpLeg 4.079665 -13.750088 -4.628269
RightLeg -4.400859 -0.000000 0.000000
RightFoot -19.688689 -19.652877 17.915684
RightToeBase 25.815793 -0.000000 -0.000000
4
root 19.710788 35.268390 -23.331934 -174.754253 -1.416248 -179.533795
Spine -14.777937 0.128002 -0.333420
Head 6.344306 -2.547354 0.936622
LeftShoulder -14.018085 -33.092406 22.563145
LeftArm 1.246781 1.108599 -6.237689
LeftForeArm 12.518325 -0.000000 -3.550515
LeftHand -11.437464 -0.000000 -2.672582
LeftHandThumb1 -26.253704 0.000000 33.147579
RightShoulder -12.603115 -2.708591 -12.311039
RightArm 3.645178 36.368106 8.945425
RightForeArm -38.602127 -0.000000 3.790576
RightHand -8.385337 0.000000 9.096068
RightHandThumb1 -24.326973 -0.000000 -32.862282
LeftUpLeg 5.104461 10.858144 4.478036
LeftLeg -6.531582 -0.000000 0.000000
LeftFoot -19.236640 24.387197 -13.445939
LeftToeBase 25.027497 -0.000000 -0.000000
RightUpLeg 4.055924 -13.730989 -4.611024
RightLeg -4.399705 -0.000000 0.000000
RightFoot -19.691506 -19.649193 18.001244
RightToeBase 25.662140 -0.000000 -0.000000
5
root 19.711973 35.268429 -23.332402 -174.740198 -1.406784 -179.531169
Spine -14.786035 0.145777 -0.336075
Head 6.342219 -2.559526 0.915211
LeftShoulder -14.017288 -33.087334 22.576425
LeftArm 1.248457 1.196626 -6.224560
LeftForeArm 12.412284 0.000000 -3.617225
LeftHand -11.422295 -0.000000 -2.657262
LeftHandThumb1 -26.253704 0.000000 33.147579
RightShoulder -12.609257 -2.694302 -12.316312
RightArm 3.613682 36.381700 8.922800
RightForeArm -38.628103 -0.000000 3.783545
RightHand -8.381426 0.000000 9.095230
RightHandThumb1 -24.326973 -0.000000 -32.862282
LeftUpLeg 5.086281 10.873688 4.478651
LeftLeg -6.521238 -0.000000 0.000000
LeftFoot -19.242061 24.384625 -13.456933
LeftToeBase 25.025087 -0.000000 -0.000000
RightUpLeg 4.041497 -13.718154 -4.603424
RightLeg -4.405704 -0.000000 0.000000
RightFoot -19.685161 -19.642388 18.054151
RightToeBase 25.615021 -0.000000 -0.000000
6
root 19.712573 35.268142 -23.333470 -174.717053 -1.396692 -179.533304
Spine -14.811063 0.156803 -0.343958
Head 6.355451 -2.555932 0.901589
LeftShoulder -14.029979 -33.050503 22.590323
LeftArm 1.242715 1.141370 -6.213246
LeftForeArm 12.383118 -0.000000 -3.632992
LeftHand -11.407007 -0.000000 -2.655539
LeftHandThumb1 -26.253704 0.000000 33.147579
RightShoulder -12.616229 -2.687378 -12.319084
RightArm 3.606195 36.412313 8.916790
RightForeArm -38.617971 -0.000000 3.776943
RightHand -8.403537 -0.000000 9.056356
RightHandThumb1 -24.326973 -0.000000 -32.862282
LeftUpLeg 5.070348 10.880006 4.472694
LeftLeg -6.527092 -0.000000 0.000000
LeftFoot -19.239208 24.387940 -13.453991
LeftToeBase 25.020533 -0.000000 -0.000000
RightUpLeg 4.016511 -13.713265 -4.601939
RightLeg -4.404655 -0.000000 0.000000
RightFoot -19.692100 -19.673496 17.914423
RightToeBase 25.798497 -0.000000 -0.000000
7
root 19.714347 35.268234 -23.334289 -174.701308 -1.392337 -179.526959
Spine -14.820171 0.155804 -0.342810
Head 6.352468 -2.509825 0.899648
LeftShoulder -14.064769 -33.071371 22.628953
LeftArm 1.225760 1.134297 -6.206629
LeftForeArm 12.386012 -0.000000 -3.633559
LeftHand -11.449310 -0.000000 -2.613287
LeftHandThumb1 -26.253704 0.000000 33.147579
RightShoulder -12.621226 -2.658372 -12.320247
RightArm 3.585121 36.437637 8.899832
RightForeArm -38.654605 -0.000000 3.791123
RightHand -8.409353 -0.000000 9.064488
RightHandThumb1 -24.326973 -0.000000 -32.862282
LeftUpLeg 5.053195 10.882387 4.478034
LeftLeg -6.521454 -0.000000 0.000000
LeftFoot -19.243736 24.397143 -13.451121
LeftToeBase 25.043814 -0.000000 -0.000000
RightUpLeg 3.999630 -13.705811 -4.585411
RightLeg -4.403561 -0.000000 0.000000
RightFoot -19.680160 -19.627348 17.971045
RightToeBase 25.790829 -0.000000 -0.000000
8
root 19.715253 35.268375 -23.336032 -174.691142 -1.381028 -179.523705
Spine -14.829036 0.161020 -0.342471
Head 6.360329 -2.497248 0.889673
LeftShoulder -14.099455 -33.056220 22.654945
LeftArm 1.224766 1.125041 -6.201271
LeftForeArm 12.359615 -0.000000 -3.640980
LeftHand -11.454778 -0.000000 -2.596350
LeftHandThumb1 -26.253704 0.000000 33.147579
RightShoulder -12.600353 -2.628134 -12.334019
RightArm 3.522492 36.408297 8.869514
RightForeArm -38.645059 0.000000 3.810544
RightHand -8.393137 -0.000000 9.069789
RightHandThumb1 -24.326973 -0.000000 -32.862282
LeftUpLeg 5.046367 10.903907 4.480636
LeftLeg -6.519117 -0.000000 0.000000
LeftFoot -19.249519 24.387868 -13.466459
LeftToeBase 25.036436 -0.000000 -0.000000
RightUpLeg 3.990404 -13.715993 -4.581354
RightLeg -4.405603 -0.000000 0.000000
RightFoot -19.674075 -19.618096 18.033869
RightToeBase 25.730322 -0.000000 -0.000000
9
root 19.716152 35.268481 -23.336110 -174.669399 -1.366612 -179.515167
Spine -14.848518 0.177163 -0.337027
Head 6.361882 -2.486711 0.878939
LeftShoulder -14.124629 -33.034807 22.662158
LeftArm 1.227236 1.079596 -6.185152
LeftForeArm 12.379205 -0.000000 -3.644086
LeftHand -11.429974 -0.000000 -2.596481
LeftHandThumb1 -26.253704 0.000000 33.147579
RightShoulder -12.616183 -2.645549 -12.340058
RightArm 3.549333 36.571382 8.895207
RightForeArm -38.747173 -0.000000 3.796610
RightHand -8.423160 0.000000 9.063681
RightHandThumb1 -24.326973 -0.000000 -32.862282
LeftUpLeg 5.024725 10.920638 4.486160
LeftLeg -6.512690 -0.000000 0.000000
LeftFoot -19.257882 24.382109 -13.457919
LeftToeBase 25.011773 -0.000000 -0.000000
RightUpLeg 3.963749 -13.704456 -4.565737
RightLeg -4.404197 -0.000000 0.000000
RightFoot -19.662833 -19.605990 17.978907
RightToeBase 25.771387 -0.000000 -0.000000
10
root 19.717251 35.268469 -23.337534 -174.651628 -1.355133 -179.515245
Spine -14.869138 0.185520 -0.342183
Head 6.374832 -2.463929 0.868404
LeftShoulder -14.152927 -33.015022 22.665796
LeftArm 1.247229 1.068232 -6.157047
LeftForeArm 12.363887 -0.000000 -3.659622
LeftHand -11.438711 -0.000000 -2.620662
LeftHandThumb1 -26.253704 0.000000 33.147579
RightShoulder -12.613630 -2.636125 -12.340445
RightArm 3.516682 36.518024 8.863568
RightForeArm -38.657097 -0.000000 3.818419
RightHand -8.468895 0.000000 9.089871
RightHandThumb1 -24.326973 -0.000000 -32.862282
LeftUpLeg 5.013819 10.918741 4.484203
LeftLeg -6.517531 -0.000000 0.000000
LeftFoot -19.251793 24.395167 -13.462970
LeftToeBase 25.014637 -0.000000 -0.000000
RightUpLeg 3.947983 -13.706130 -4.563095
RightLeg -4.410695 -0.000000 0.000000
RightFoot -19.664928 -19.665911 17.880679
RightToeBase 25.849028 -0.000000 -0.000000
11
root 19.717565 35.268871 -23.338042 -174.634471 -1.343728 -179.509249
Spine -14.889379 0.194527 -0.334797
Head 6.405917 -2.447305 0.842431
LeftShoulder -14.177551 -33.031709 22.690501
LeftArm 1.198800 1.026482 -6.148688
LeftForeArm 12.413988 -0.000000 -3.594464
LeftHand -11.441974 -0.000000 -2.656921
LeftHandThumb1 -26.253704 0.000000 33.147579
RightShoulder -12.593305 -2.620094 -12.350856
RightArm 3.450855 36.388370 8.816254
RightForeArm -38.549694 -0.000000 3.844622
RightHand -8.458772 -0.000000 9.095354
RightHandThumb1 -24.326973 -0.000000 -32.862282
LeftUpLeg 5.003142 10.919989 4.486230
LeftLeg -6.525767 -0.000000 0.000000
LeftFoot -19.255517 24.407434 -13.479615
LeftToeBase 25.001150 -0.000000 -0.000000
RightUpLeg 3.924273 -13.709276 -4.552215
RightLeg -4.400372 -0.000000 0.000000
RightFoot -19.666218 -19.613978 17.990720
RightToeBase 25.711673 -0.000000 -0.000000
12
root 19.717676 35.268655 -23.339491 -174.619281 -1.333751 -179.510200
Spine -14.908956 0.202503 -0.334833
Head 6.425477 -2.393371 0.836414
LeftShoulder -14.192878 -33.020691 22.703002
LeftArm 1.179342 1.023748 -6.139810
LeftForeArm 12.407922 0.000000 -3.590236
LeftHand -11.464423 -0.000000 -2.644400
LeftHandThumb1 -26.253704 0.000000 33.147579
RightShoulder -12.586934 -2.593222 -12.368827
RightArm 3.421865 36.363268 8.795730
RightForeArm -38.539634 -0.000000 3.840934
RightHand -8.526469 -0.000000 9.098651
RightHandThumb1 -24.326973 -0.000000 -32.862282
LeftUpLeg 4.984986 10.934717 4.482990
LeftLeg -6.510303 -0.000000 0.000000
LeftFoot -19.265888 24.396015 -13.483592
LeftToeBase 25.043672 -0.000000 -0.000000
RightUpLeg 3.912345 -13.729506 -4.552032
RightLeg -4.410569 -0.000000 0.000000
RightFoot -19.658006 -19.575140 17.891890
RightToeBase 25.967728 -0.000000 -0.000000
13
root 19.718395 35.268525 -23.340773 -174.601998 -1.318955 -179.506592
Spine -14.929871 0.216496 -0.333002
Head 6.442805 -2.370133 0.825051
LeftShoulder -14.211101 -33.037051 22.710925
LeftArm 1.171682 1.043826 -6.116629
LeftForeArm 12.385909 -0.000000 -3.597628
LeftHand -11.463344 -0.000000 -2.656169
LeftHandThumb1 -26.253704 0.000000 33.147579
RightShoulder -12.606985 -2.628128 -12.372164
RightArm 3.451288 36.400728 8.820396
RightForeArm -38.582558 -0.000000 3.845579
RightHand -8.559710 -0.000000 9.094231
RightHandThumb1 -24.326973 -0.000000 -32.862282
LeftUpLeg 4.972595 10.947883 4.484880
LeftLeg -6.510513 -0.000000 0.000000
LeftFoot -19.262147 24.399636 -13.470738
LeftToeBase 25.037108 -0.000000 -0.000000
RightUpLeg 3.896276 -13.716592 -4.542572
RightLeg -4.411796 -0.000000 0.000000
RightFoot -19.634504 -19.584751 17.933723
RightToeBase 25.800962 -0.000000 -0.000000
